<mxfile host="app.diagrams.net" agent="Mozilla/5.0 (Windows NT 10.0; Win64; x64) AppleWebKit/537.36 (KHTML, like Gecko) Chrome/131.0.0.0 Safari/537.36" version="26.0.6">
  <diagram name="Страница — 1" id="ZTPhkDl85M3O7Eon5mHw">
    <mxGraphModel dx="1687" dy="918" grid="1" gridSize="20" guides="1" tooltips="1" connect="1" arrows="1" fold="1" page="1" pageScale="1" pageWidth="827" pageHeight="1169" math="0" shadow="0">
      <root>
        <mxCell id="0" />
        <mxCell id="1" parent="0" />
        <mxCell id="oaEBjMoHq7otdUCEXcrT-1" value="Web Customer" style="shape=umlActor;verticalLabelPosition=bottom;verticalAlign=top;html=1;outlineConnect=0;" vertex="1" parent="1">
          <mxGeometry x="150" y="310" width="50" height="80" as="geometry" />
        </mxCell>
        <mxCell id="oaEBjMoHq7otdUCEXcrT-13" value="Registered&amp;nbsp;&lt;div&gt;&lt;span style=&quot;background-color: transparent; color: light-dark(rgb(0, 0, 0), rgb(255, 255, 255));&quot;&gt;Customer&lt;/span&gt;&lt;/div&gt;&lt;div&gt;&lt;div&gt;&lt;br&gt;&lt;/div&gt;&lt;/div&gt;" style="shape=umlActor;verticalLabelPosition=bottom;verticalAlign=top;html=1;outlineConnect=0;" vertex="1" parent="1">
          <mxGeometry x="240" y="200" width="50" height="80" as="geometry" />
        </mxCell>
        <mxCell id="oaEBjMoHq7otdUCEXcrT-14" value="&lt;div&gt;&lt;div&gt;New&amp;nbsp;&lt;/div&gt;&lt;/div&gt;&lt;div&gt;Customer&lt;/div&gt;&lt;div&gt;&lt;br&gt;&lt;/div&gt;" style="shape=umlActor;verticalLabelPosition=bottom;verticalAlign=top;html=1;outlineConnect=0;" vertex="1" parent="1">
          <mxGeometry x="260" y="370" width="50" height="80" as="geometry" />
        </mxCell>
        <mxCell id="oaEBjMoHq7otdUCEXcrT-31" value="&lt;div&gt;&lt;br&gt;&lt;/div&gt;&lt;div&gt;&lt;br&gt;&lt;/div&gt;" style="endArrow=block;endSize=16;endFill=0;html=1;rounded=0;" edge="1" parent="1" source="oaEBjMoHq7otdUCEXcrT-13" target="oaEBjMoHq7otdUCEXcrT-1">
          <mxGeometry width="160" relative="1" as="geometry">
            <mxPoint x="240" y="360" as="sourcePoint" />
            <mxPoint x="210" y="290" as="targetPoint" />
          </mxGeometry>
        </mxCell>
        <mxCell id="oaEBjMoHq7otdUCEXcrT-32" value="&lt;div&gt;&lt;br&gt;&lt;/div&gt;&lt;div&gt;&lt;br&gt;&lt;/div&gt;" style="endArrow=block;endSize=16;endFill=0;html=1;rounded=0;" edge="1" parent="1">
          <mxGeometry width="160" relative="1" as="geometry">
            <mxPoint x="260" y="458" as="sourcePoint" />
            <mxPoint x="210" y="410" as="targetPoint" />
          </mxGeometry>
        </mxCell>
        <mxCell id="oaEBjMoHq7otdUCEXcrT-30" value="" style="rounded=1;whiteSpace=wrap;html=1;absoluteArcSize=1;arcSize=14;strokeWidth=2;container=0;" vertex="1" parent="1">
          <mxGeometry x="370" y="40" width="190" height="470" as="geometry" />
        </mxCell>
        <mxCell id="oaEBjMoHq7otdUCEXcrT-24" value="&lt;span style=&quot;font-weight: 700; text-wrap-mode: nowrap;&quot;&gt;Client&lt;/span&gt;&lt;div style=&quot;font-weight: 700; text-wrap-mode: nowrap;&quot;&gt;Register&lt;/div&gt;" style="ellipse;whiteSpace=wrap;html=1;container=0;" vertex="1" parent="1">
          <mxGeometry x="419.1724064171123" y="425.4878048780488" width="103.63636363636364" height="74.25" as="geometry" />
        </mxCell>
        <mxCell id="oaEBjMoHq7otdUCEXcrT-17" value="&lt;span style=&quot;font-weight: 700; text-wrap-mode: nowrap;&quot;&gt;View&lt;/span&gt;&lt;div style=&quot;font-weight: 700; text-wrap-mode: nowrap;&quot;&gt;items&lt;/div&gt;" style="ellipse;whiteSpace=wrap;html=1;container=0;" vertex="1" parent="1">
          <mxGeometry x="419.1724064171123" y="87.43902439024392" width="103.63636363636364" height="74.25" as="geometry" />
        </mxCell>
        <mxCell id="oaEBjMoHq7otdUCEXcrT-20" value="&lt;span style=&quot;font-weight: 700; text-wrap-mode: nowrap;&quot;&gt;Make&lt;/span&gt;&lt;div style=&quot;font-weight: 700; text-wrap-mode: nowrap;&quot;&gt;Purchase&lt;/div&gt;" style="ellipse;whiteSpace=wrap;html=1;container=0;" vertex="1" parent="1">
          <mxGeometry x="416.5347593582888" y="199.66463414634146" width="103.63636363636364" height="74.25" as="geometry" />
        </mxCell>
        <mxCell id="oaEBjMoHq7otdUCEXcrT-22" value="" style="ellipse;whiteSpace=wrap;html=1;container=0;" vertex="1" parent="1">
          <mxGeometry x="419.1724064171123" y="312.43902439024396" width="103.63636363636364" height="74.25" as="geometry" />
        </mxCell>
        <mxCell id="oaEBjMoHq7otdUCEXcrT-23" value="&lt;div&gt;Checkout&lt;/div&gt;" style="text;align=center;fontStyle=1;verticalAlign=middle;spacingLeft=3;spacingRight=3;strokeColor=none;rotatable=0;points=[[0,0.5],[1,0.5]];portConstraint=eastwest;html=1;container=0;" vertex="1" parent="1">
          <mxGeometry x="436.44513368983957" y="334.93902439024396" width="69.0909090909091" height="29.250000000000004" as="geometry" />
        </mxCell>
        <mxCell id="oaEBjMoHq7otdUCEXcrT-36" value="&lt;font style=&quot;font-size: 10px;&quot;&gt;«Subsystem»&lt;/font&gt;" style="text;html=1;align=center;verticalAlign=middle;resizable=0;points=[];autosize=1;strokeColor=none;fillColor=none;" vertex="1" parent="1">
          <mxGeometry x="364" y="36" width="80" height="30" as="geometry" />
        </mxCell>
        <mxCell id="oaEBjMoHq7otdUCEXcrT-38" value="&lt;span style=&quot;font-size: 10px;&quot;&gt;Online Shopping&lt;/span&gt;" style="text;html=1;align=center;verticalAlign=middle;resizable=0;points=[];autosize=1;strokeColor=none;fillColor=none;" vertex="1" parent="1">
          <mxGeometry x="361" y="49" width="100" height="30" as="geometry" />
        </mxCell>
        <mxCell id="oaEBjMoHq7otdUCEXcrT-39" value="" style="endArrow=open;endSize=12;dashed=1;html=1;rounded=0;" edge="1" parent="1" source="oaEBjMoHq7otdUCEXcrT-20" target="oaEBjMoHq7otdUCEXcrT-17">
          <mxGeometry width="160" relative="1" as="geometry">
            <mxPoint x="140" y="260" as="sourcePoint" />
            <mxPoint x="300" y="260" as="targetPoint" />
          </mxGeometry>
        </mxCell>
        <mxCell id="oaEBjMoHq7otdUCEXcrT-40" value="" style="endArrow=open;endSize=12;dashed=1;html=1;rounded=0;" edge="1" parent="1" source="oaEBjMoHq7otdUCEXcrT-20" target="oaEBjMoHq7otdUCEXcrT-22">
          <mxGeometry width="160" relative="1" as="geometry">
            <mxPoint x="479" y="210" as="sourcePoint" />
            <mxPoint x="480" y="172" as="targetPoint" />
          </mxGeometry>
        </mxCell>
        <mxCell id="oaEBjMoHq7otdUCEXcrT-41" value="&lt;font style=&quot;font-size: 10px;&quot;&gt;«include»&lt;/font&gt;" style="text;html=1;align=center;verticalAlign=middle;resizable=0;points=[];autosize=1;strokeColor=none;fillColor=none;" vertex="1" parent="1">
          <mxGeometry x="463" y="170" width="70" height="30" as="geometry" />
        </mxCell>
        <mxCell id="oaEBjMoHq7otdUCEXcrT-42" value="&lt;font style=&quot;font-size: 10px;&quot;&gt;«include»&lt;/font&gt;" style="text;html=1;align=center;verticalAlign=middle;resizable=0;points=[];autosize=1;strokeColor=none;fillColor=none;" vertex="1" parent="1">
          <mxGeometry x="463" y="271" width="70" height="30" as="geometry" />
        </mxCell>
        <mxCell id="oaEBjMoHq7otdUCEXcrT-43" value="&lt;span style=&quot;font-size: 10px;&quot;&gt;«Servise»&lt;/span&gt;&lt;div&gt;&lt;span style=&quot;font-size: 10px;&quot;&gt;Authentication&lt;/span&gt;&lt;/div&gt;" style="shape=umlActor;verticalLabelPosition=bottom;verticalAlign=top;html=1;outlineConnect=0;" vertex="1" parent="1">
          <mxGeometry x="710" y="49" width="50" height="80" as="geometry" />
        </mxCell>
        <mxCell id="oaEBjMoHq7otdUCEXcrT-44" value="&lt;span style=&quot;font-size: 10px;&quot;&gt;Identity&lt;/span&gt;&lt;div&gt;&lt;span style=&quot;font-size: 10px;&quot;&gt;Provider&lt;/span&gt;&lt;/div&gt;&lt;div&gt;&lt;span style=&quot;font-size: 10px;&quot;&gt;&lt;br&gt;&lt;/span&gt;&lt;/div&gt;" style="shape=umlActor;verticalLabelPosition=bottom;verticalAlign=top;html=1;outlineConnect=0;" vertex="1" parent="1">
          <mxGeometry x="712" y="183" width="50" height="80" as="geometry" />
        </mxCell>
        <mxCell id="oaEBjMoHq7otdUCEXcrT-45" value="&lt;span style=&quot;font-size: 10px;&quot;&gt;Credit&lt;/span&gt;&lt;div&gt;&lt;span style=&quot;font-size: 10px;&quot;&gt;Payment&lt;/span&gt;&lt;/div&gt;" style="shape=umlActor;verticalLabelPosition=bottom;verticalAlign=top;html=1;outlineConnect=0;" vertex="1" parent="1">
          <mxGeometry x="712" y="310" width="50" height="80" as="geometry" />
        </mxCell>
        <mxCell id="oaEBjMoHq7otdUCEXcrT-48" value="&lt;span style=&quot;font-size: 10px;&quot;&gt;PayPal&lt;/span&gt;" style="shape=umlActor;verticalLabelPosition=bottom;verticalAlign=top;html=1;outlineConnect=0;" vertex="1" parent="1">
          <mxGeometry x="712" y="450" width="50" height="80" as="geometry" />
        </mxCell>
        <mxCell id="oaEBjMoHq7otdUCEXcrT-49" value="" style="endArrow=none;html=1;rounded=0;" edge="1" parent="1" target="oaEBjMoHq7otdUCEXcrT-17">
          <mxGeometry width="50" height="50" relative="1" as="geometry">
            <mxPoint x="300" y="230" as="sourcePoint" />
            <mxPoint x="350" y="180" as="targetPoint" />
          </mxGeometry>
        </mxCell>
        <mxCell id="oaEBjMoHq7otdUCEXcrT-50" value="" style="endArrow=none;html=1;rounded=0;" edge="1" parent="1" target="oaEBjMoHq7otdUCEXcrT-20">
          <mxGeometry width="50" height="50" relative="1" as="geometry">
            <mxPoint x="300" y="230" as="sourcePoint" />
            <mxPoint x="442" y="159" as="targetPoint" />
          </mxGeometry>
        </mxCell>
        <mxCell id="oaEBjMoHq7otdUCEXcrT-51" value="" style="endArrow=none;html=1;rounded=0;" edge="1" parent="1" source="oaEBjMoHq7otdUCEXcrT-14">
          <mxGeometry width="50" height="50" relative="1" as="geometry">
            <mxPoint x="310" y="240" as="sourcePoint" />
            <mxPoint x="442" y="159" as="targetPoint" />
          </mxGeometry>
        </mxCell>
        <mxCell id="oaEBjMoHq7otdUCEXcrT-52" value="" style="endArrow=none;html=1;rounded=0;entryX=-0.006;entryY=0.416;entryDx=0;entryDy=0;entryPerimeter=0;" edge="1" parent="1" target="oaEBjMoHq7otdUCEXcrT-24">
          <mxGeometry width="50" height="50" relative="1" as="geometry">
            <mxPoint x="310" y="370" as="sourcePoint" />
            <mxPoint x="452" y="169" as="targetPoint" />
          </mxGeometry>
        </mxCell>
        <mxCell id="oaEBjMoHq7otdUCEXcrT-53" value="" style="endArrow=none;html=1;rounded=0;" edge="1" parent="1" source="oaEBjMoHq7otdUCEXcrT-17">
          <mxGeometry width="50" height="50" relative="1" as="geometry">
            <mxPoint x="550" y="104.5" as="sourcePoint" />
            <mxPoint x="680" y="80" as="targetPoint" />
          </mxGeometry>
        </mxCell>
        <mxCell id="oaEBjMoHq7otdUCEXcrT-55" value="" style="endArrow=none;html=1;rounded=0;" edge="1" parent="1" source="oaEBjMoHq7otdUCEXcrT-17">
          <mxGeometry width="50" height="50" relative="1" as="geometry">
            <mxPoint x="529" y="142" as="sourcePoint" />
            <mxPoint x="680" y="200" as="targetPoint" />
          </mxGeometry>
        </mxCell>
        <mxCell id="oaEBjMoHq7otdUCEXcrT-56" value="" style="endArrow=none;html=1;rounded=0;exitX=0.981;exitY=0.609;exitDx=0;exitDy=0;exitPerimeter=0;" edge="1" parent="1" source="oaEBjMoHq7otdUCEXcrT-22">
          <mxGeometry width="50" height="50" relative="1" as="geometry">
            <mxPoint x="531" y="124" as="sourcePoint" />
            <mxPoint x="680" y="80" as="targetPoint" />
          </mxGeometry>
        </mxCell>
        <mxCell id="oaEBjMoHq7otdUCEXcrT-58" value="" style="endArrow=none;html=1;rounded=0;exitX=1;exitY=0.5;exitDx=0;exitDy=0;" edge="1" parent="1" source="oaEBjMoHq7otdUCEXcrT-24">
          <mxGeometry width="50" height="50" relative="1" as="geometry">
            <mxPoint x="600" y="460" as="sourcePoint" />
            <mxPoint x="680" y="80" as="targetPoint" />
          </mxGeometry>
        </mxCell>
        <mxCell id="oaEBjMoHq7otdUCEXcrT-60" value="" style="endArrow=none;html=1;rounded=0;" edge="1" parent="1">
          <mxGeometry width="50" height="50" relative="1" as="geometry">
            <mxPoint x="520.17" y="360" as="sourcePoint" />
            <mxPoint x="680" y="200" as="targetPoint" />
          </mxGeometry>
        </mxCell>
        <mxCell id="oaEBjMoHq7otdUCEXcrT-61" value="" style="endArrow=none;html=1;rounded=0;exitX=0.98;exitY=0.641;exitDx=0;exitDy=0;exitPerimeter=0;" edge="1" parent="1" source="oaEBjMoHq7otdUCEXcrT-22">
          <mxGeometry width="50" height="50" relative="1" as="geometry">
            <mxPoint x="460" y="340" as="sourcePoint" />
            <mxPoint x="710" y="360" as="targetPoint" />
          </mxGeometry>
        </mxCell>
        <mxCell id="oaEBjMoHq7otdUCEXcrT-62" value="" style="endArrow=none;html=1;rounded=0;exitX=0.963;exitY=0.68;exitDx=0;exitDy=0;exitPerimeter=0;" edge="1" parent="1" source="oaEBjMoHq7otdUCEXcrT-22">
          <mxGeometry width="50" height="50" relative="1" as="geometry">
            <mxPoint x="570" y="430" as="sourcePoint" />
            <mxPoint x="700" y="500" as="targetPoint" />
          </mxGeometry>
        </mxCell>
        <mxCell id="oaEBjMoHq7otdUCEXcrT-65" value="Add to Wish&lt;div&gt;List&lt;/div&gt;" style="ellipse;whiteSpace=wrap;html=1;" vertex="1" parent="1">
          <mxGeometry x="401" y="1120" width="120" height="80" as="geometry" />
        </mxCell>
        <mxCell id="oaEBjMoHq7otdUCEXcrT-66" value="Add to&lt;div&gt;Shopping Cart&lt;/div&gt;" style="ellipse;whiteSpace=wrap;html=1;" vertex="1" parent="1">
          <mxGeometry x="400" y="1000" width="120" height="80" as="geometry" />
        </mxCell>
        <mxCell id="oaEBjMoHq7otdUCEXcrT-67" value="Browse&lt;div&gt;Items&lt;/div&gt;" style="ellipse;whiteSpace=wrap;html=1;" vertex="1" parent="1">
          <mxGeometry x="400.45" y="757" width="120" height="80" as="geometry" />
        </mxCell>
        <mxCell id="oaEBjMoHq7otdUCEXcrT-68" value="Search&lt;div&gt;Items&lt;/div&gt;" style="ellipse;whiteSpace=wrap;html=1;" vertex="1" parent="1">
          <mxGeometry x="400" y="640" width="120" height="80" as="geometry" />
        </mxCell>
        <mxCell id="oaEBjMoHq7otdUCEXcrT-69" value="View&lt;div&gt;Recommended&lt;/div&gt;&lt;div&gt;Items&lt;/div&gt;" style="ellipse;whiteSpace=wrap;html=1;" vertex="1" parent="1">
          <mxGeometry x="400" y="884" width="120" height="80" as="geometry" />
        </mxCell>
        <mxCell id="oaEBjMoHq7otdUCEXcrT-70" value="View&lt;div&gt;Items&lt;/div&gt;" style="ellipse;whiteSpace=wrap;html=1;" vertex="1" parent="1">
          <mxGeometry x="170" y="960" width="120" height="80" as="geometry" />
        </mxCell>
        <mxCell id="oaEBjMoHq7otdUCEXcrT-71" value="Customer&lt;div&gt;Authentication&lt;/div&gt;" style="ellipse;whiteSpace=wrap;html=1;" vertex="1" parent="1">
          <mxGeometry x="720" y="1000" width="120" height="80" as="geometry" />
        </mxCell>
        <mxCell id="oaEBjMoHq7otdUCEXcrT-72" value="&lt;font style=&quot;font-size: 10px;&quot;&gt;«include»&lt;/font&gt;" style="text;html=1;align=center;verticalAlign=middle;resizable=0;points=[];autosize=1;strokeColor=none;fillColor=none;" vertex="1" parent="1">
          <mxGeometry x="605" y="934" width="70" height="30" as="geometry" />
        </mxCell>
        <mxCell id="oaEBjMoHq7otdUCEXcrT-73" value="&lt;font style=&quot;font-size: 10px;&quot;&gt;«include»&lt;/font&gt;" style="text;html=1;align=center;verticalAlign=middle;resizable=0;points=[];autosize=1;strokeColor=none;fillColor=none;" vertex="1" parent="1">
          <mxGeometry x="595" y="1100" width="70" height="30" as="geometry" />
        </mxCell>
        <mxCell id="oaEBjMoHq7otdUCEXcrT-74" value="&lt;font style=&quot;font-size: 10px;&quot;&gt;«extend»&lt;/font&gt;" style="text;html=1;align=center;verticalAlign=middle;resizable=0;points=[];autosize=1;strokeColor=none;fillColor=none;" vertex="1" parent="1">
          <mxGeometry x="595" y="1000" width="80" height="40" as="geometry" />
        </mxCell>
        <mxCell id="oaEBjMoHq7otdUCEXcrT-75" value="" style="endArrow=open;endSize=12;dashed=1;html=1;rounded=0;" edge="1" parent="1" target="oaEBjMoHq7otdUCEXcrT-71">
          <mxGeometry x="-0.125" y="23" width="160" relative="1" as="geometry">
            <mxPoint x="521" y="923.82" as="sourcePoint" />
            <mxPoint x="681" y="923.82" as="targetPoint" />
            <mxPoint as="offset" />
          </mxGeometry>
        </mxCell>
        <mxCell id="oaEBjMoHq7otdUCEXcrT-76" value="" style="endArrow=open;endSize=12;dashed=1;html=1;rounded=0;" edge="1" parent="1" source="oaEBjMoHq7otdUCEXcrT-65">
          <mxGeometry x="-0.125" y="23" width="160" relative="1" as="geometry">
            <mxPoint x="541" y="943.82" as="sourcePoint" />
            <mxPoint x="720" y="1060" as="targetPoint" />
            <mxPoint as="offset" />
          </mxGeometry>
        </mxCell>
        <mxCell id="oaEBjMoHq7otdUCEXcrT-77" value="" style="endArrow=open;endSize=12;dashed=1;html=1;rounded=0;entryX=1;entryY=0.5;entryDx=0;entryDy=0;exitX=0;exitY=0.5;exitDx=0;exitDy=0;" edge="1" parent="1" source="oaEBjMoHq7otdUCEXcrT-71" target="oaEBjMoHq7otdUCEXcrT-66">
          <mxGeometry x="-0.125" y="23" width="160" relative="1" as="geometry">
            <mxPoint x="560" y="1060" as="sourcePoint" />
            <mxPoint x="770" y="1058" as="targetPoint" />
            <mxPoint as="offset" />
          </mxGeometry>
        </mxCell>
        <mxCell id="oaEBjMoHq7otdUCEXcrT-78" value="" style="endArrow=open;endSize=12;dashed=1;html=1;rounded=0;exitX=0.05;exitY=0.361;exitDx=0;exitDy=0;exitPerimeter=0;" edge="1" parent="1" source="oaEBjMoHq7otdUCEXcrT-65" target="oaEBjMoHq7otdUCEXcrT-70">
          <mxGeometry x="-0.125" y="23" width="160" relative="1" as="geometry">
            <mxPoint x="380" y="1160" as="sourcePoint" />
            <mxPoint x="310" y="1120" as="targetPoint" />
            <mxPoint as="offset" />
          </mxGeometry>
        </mxCell>
        <mxCell id="oaEBjMoHq7otdUCEXcrT-79" value="" style="endArrow=open;endSize=12;dashed=1;html=1;rounded=0;exitX=0.009;exitY=0.414;exitDx=0;exitDy=0;exitPerimeter=0;entryX=1.005;entryY=0.563;entryDx=0;entryDy=0;entryPerimeter=0;" edge="1" parent="1" source="oaEBjMoHq7otdUCEXcrT-66" target="oaEBjMoHq7otdUCEXcrT-70">
          <mxGeometry x="-0.125" y="23" width="160" relative="1" as="geometry">
            <mxPoint x="424" y="1120" as="sourcePoint" />
            <mxPoint x="270" y="1019" as="targetPoint" />
            <mxPoint as="offset" />
          </mxGeometry>
        </mxCell>
        <mxCell id="oaEBjMoHq7otdUCEXcrT-80" value="" style="endArrow=open;endSize=12;dashed=1;html=1;rounded=0;entryX=0.771;entryY=0.101;entryDx=0;entryDy=0;entryPerimeter=0;" edge="1" parent="1" source="oaEBjMoHq7otdUCEXcrT-69" target="oaEBjMoHq7otdUCEXcrT-70">
          <mxGeometry x="-0.125" y="23" width="160" relative="1" as="geometry">
            <mxPoint x="421" y="1053" as="sourcePoint" />
            <mxPoint x="290" y="1039" as="targetPoint" />
            <mxPoint as="offset" />
          </mxGeometry>
        </mxCell>
        <mxCell id="oaEBjMoHq7otdUCEXcrT-81" value="&lt;font style=&quot;font-size: 10px;&quot;&gt;«extend»&lt;/font&gt;" style="text;html=1;align=center;verticalAlign=middle;resizable=0;points=[];autosize=1;strokeColor=none;fillColor=none;" vertex="1" parent="1">
          <mxGeometry x="280" y="1080" width="80" height="40" as="geometry" />
        </mxCell>
        <mxCell id="oaEBjMoHq7otdUCEXcrT-82" value="&lt;font style=&quot;font-size: 10px;&quot;&gt;«extend»&lt;/font&gt;" style="text;html=1;align=center;verticalAlign=middle;resizable=0;points=[];autosize=1;strokeColor=none;fillColor=none;" vertex="1" parent="1">
          <mxGeometry x="321" y="980" width="80" height="40" as="geometry" />
        </mxCell>
        <mxCell id="oaEBjMoHq7otdUCEXcrT-83" value="&lt;font style=&quot;font-size: 10px;&quot;&gt;«extend»&lt;/font&gt;" style="text;html=1;align=center;verticalAlign=middle;resizable=0;points=[];autosize=1;strokeColor=none;fillColor=none;" vertex="1" parent="1">
          <mxGeometry x="310" y="904" width="80" height="40" as="geometry" />
        </mxCell>
        <mxCell id="oaEBjMoHq7otdUCEXcrT-84" value="" style="endArrow=open;endSize=12;dashed=1;html=1;rounded=0;entryX=0.583;entryY=0;entryDx=0;entryDy=0;entryPerimeter=0;exitX=0.012;exitY=0.631;exitDx=0;exitDy=0;exitPerimeter=0;" edge="1" parent="1" source="oaEBjMoHq7otdUCEXcrT-67" target="oaEBjMoHq7otdUCEXcrT-70">
          <mxGeometry x="-0.125" y="23" width="160" relative="1" as="geometry">
            <mxPoint x="390" y="837" as="sourcePoint" />
            <mxPoint x="250" y="868" as="targetPoint" />
            <mxPoint as="offset" />
          </mxGeometry>
        </mxCell>
        <mxCell id="oaEBjMoHq7otdUCEXcrT-85" value="&lt;font style=&quot;font-size: 10px;&quot;&gt;«extend»&lt;/font&gt;" style="text;html=1;align=center;verticalAlign=middle;resizable=0;points=[];autosize=1;strokeColor=none;fillColor=none;" vertex="1" parent="1">
          <mxGeometry x="361" y="820" width="80" height="40" as="geometry" />
        </mxCell>
        <mxCell id="oaEBjMoHq7otdUCEXcrT-86" value="" style="endArrow=open;endSize=12;dashed=1;html=1;rounded=0;exitX=0.061;exitY=0.661;exitDx=0;exitDy=0;exitPerimeter=0;entryX=0.083;entryY=0.25;entryDx=0;entryDy=0;entryPerimeter=0;" edge="1" parent="1" source="oaEBjMoHq7otdUCEXcrT-68" target="oaEBjMoHq7otdUCEXcrT-70">
          <mxGeometry x="-0.125" y="23" width="160" relative="1" as="geometry">
            <mxPoint x="390" y="720" as="sourcePoint" />
            <mxPoint x="160" y="960" as="targetPoint" />
            <mxPoint as="offset" />
          </mxGeometry>
        </mxCell>
        <mxCell id="oaEBjMoHq7otdUCEXcrT-87" value="&lt;font style=&quot;font-size: 10px;&quot;&gt;«extend»&lt;/font&gt;" style="text;html=1;align=center;verticalAlign=middle;resizable=0;points=[];autosize=1;strokeColor=none;fillColor=none;" vertex="1" parent="1">
          <mxGeometry x="321" y="680" width="80" height="40" as="geometry" />
        </mxCell>
        <mxCell id="oaEBjMoHq7otdUCEXcrT-88" value="Checkout" style="strokeWidth=2;html=1;shape=mxgraph.flowchart.start_1;whiteSpace=wrap;" vertex="1" parent="1">
          <mxGeometry x="510" y="1800" width="139.17" height="80" as="geometry" />
        </mxCell>
        <mxCell id="oaEBjMoHq7otdUCEXcrT-89" value="Customer&lt;div&gt;Authentication&lt;/div&gt;" style="strokeWidth=2;html=1;shape=mxgraph.flowchart.start_1;whiteSpace=wrap;" vertex="1" parent="1">
          <mxGeometry x="735.54" y="1560" width="139.17" height="80" as="geometry" />
        </mxCell>
        <mxCell id="oaEBjMoHq7otdUCEXcrT-90" value="View / Update&lt;div&gt;Shopping Cart&lt;/div&gt;" style="strokeWidth=2;html=1;shape=mxgraph.flowchart.start_1;whiteSpace=wrap;" vertex="1" parent="1">
          <mxGeometry x="735.54" y="1800" width="139.17" height="80" as="geometry" />
        </mxCell>
        <mxCell id="oaEBjMoHq7otdUCEXcrT-91" value="Calculate&lt;div&gt;Taxes and&lt;/div&gt;&lt;div&gt;Shipping&lt;/div&gt;" style="strokeWidth=2;html=1;shape=mxgraph.flowchart.start_1;whiteSpace=wrap;" vertex="1" parent="1">
          <mxGeometry x="735.54" y="1940" width="139.17" height="80" as="geometry" />
        </mxCell>
        <mxCell id="oaEBjMoHq7otdUCEXcrT-92" value="Payment" style="strokeWidth=2;html=1;shape=mxgraph.flowchart.start_1;whiteSpace=wrap;" vertex="1" parent="1">
          <mxGeometry x="735.54" y="2198" width="139.17" height="80" as="geometry" />
        </mxCell>
        <mxCell id="oaEBjMoHq7otdUCEXcrT-93" value="" style="endArrow=open;endSize=12;dashed=1;html=1;rounded=0;entryX=0.058;entryY=0.668;entryDx=0;entryDy=0;entryPerimeter=0;" edge="1" parent="1" source="oaEBjMoHq7otdUCEXcrT-88" target="oaEBjMoHq7otdUCEXcrT-89">
          <mxGeometry width="160" relative="1" as="geometry">
            <mxPoint x="575.54" y="1740" as="sourcePoint" />
            <mxPoint x="735.54" y="1740" as="targetPoint" />
          </mxGeometry>
        </mxCell>
        <mxCell id="oaEBjMoHq7otdUCEXcrT-94" value="" style="endArrow=open;endSize=12;dashed=1;html=1;rounded=0;entryX=0.029;entryY=0.296;entryDx=0;entryDy=0;entryPerimeter=0;" edge="1" parent="1" target="oaEBjMoHq7otdUCEXcrT-90">
          <mxGeometry width="160" relative="1" as="geometry">
            <mxPoint x="629" y="1820" as="sourcePoint" />
            <mxPoint x="764" y="1633" as="targetPoint" />
          </mxGeometry>
        </mxCell>
        <mxCell id="oaEBjMoHq7otdUCEXcrT-95" value="" style="endArrow=open;endSize=12;dashed=1;html=1;rounded=0;entryX=0.104;entryY=0.25;entryDx=0;entryDy=0;entryPerimeter=0;" edge="1" parent="1" target="oaEBjMoHq7otdUCEXcrT-91">
          <mxGeometry width="160" relative="1" as="geometry">
            <mxPoint x="649" y="1840" as="sourcePoint" />
            <mxPoint x="760" y="1844" as="targetPoint" />
          </mxGeometry>
        </mxCell>
        <mxCell id="oaEBjMoHq7otdUCEXcrT-96" value="" style="endArrow=open;endSize=12;dashed=1;html=1;rounded=0;exitX=0.309;exitY=1.025;exitDx=0;exitDy=0;exitPerimeter=0;" edge="1" parent="1" source="oaEBjMoHq7otdUCEXcrT-88" target="oaEBjMoHq7otdUCEXcrT-92">
          <mxGeometry width="160" relative="1" as="geometry">
            <mxPoint x="360" y="1940" as="sourcePoint" />
            <mxPoint x="461" y="2060" as="targetPoint" />
          </mxGeometry>
        </mxCell>
        <mxCell id="oaEBjMoHq7otdUCEXcrT-97" value="&lt;font style=&quot;font-size: 10px;&quot;&gt;«include»&lt;/font&gt;" style="text;html=1;align=center;verticalAlign=middle;resizable=0;points=[];autosize=1;strokeColor=none;fillColor=none;" vertex="1" parent="1">
          <mxGeometry x="682.81" y="2168" width="70" height="30" as="geometry" />
        </mxCell>
        <mxCell id="oaEBjMoHq7otdUCEXcrT-98" value="&lt;font style=&quot;font-size: 10px;&quot;&gt;«include»&lt;/font&gt;" style="text;html=1;align=center;verticalAlign=middle;resizable=0;points=[];autosize=1;strokeColor=none;fillColor=none;" vertex="1" parent="1">
          <mxGeometry x="720" y="1900" width="70" height="30" as="geometry" />
        </mxCell>
        <mxCell id="oaEBjMoHq7otdUCEXcrT-99" value="&lt;font style=&quot;font-size: 10px;&quot;&gt;«include»&lt;/font&gt;" style="text;html=1;align=center;verticalAlign=middle;resizable=0;points=[];autosize=1;strokeColor=none;fillColor=none;" vertex="1" parent="1">
          <mxGeometry x="656" y="1780" width="70" height="30" as="geometry" />
        </mxCell>
        <mxCell id="oaEBjMoHq7otdUCEXcrT-100" value="&lt;font style=&quot;font-size: 10px;&quot;&gt;«include»&lt;/font&gt;" style="text;html=1;align=center;verticalAlign=middle;resizable=0;points=[];autosize=1;strokeColor=none;fillColor=none;" vertex="1" parent="1">
          <mxGeometry x="586" y="1694" width="70" height="30" as="geometry" />
        </mxCell>
        <mxCell id="oaEBjMoHq7otdUCEXcrT-101" value="&lt;div&gt;&lt;br&gt;&lt;/div&gt;&lt;div&gt;&lt;br&gt;&lt;/div&gt;" style="endArrow=block;endSize=16;endFill=0;html=1;rounded=0;exitX=0;exitY=0.667;exitDx=0;exitDy=0;exitPerimeter=0;entryX=0.773;entryY=0.077;entryDx=0;entryDy=0;entryPerimeter=0;" edge="1" parent="1" source="oaEBjMoHq7otdUCEXcrT-102" target="oaEBjMoHq7otdUCEXcrT-89">
          <mxGeometry width="160" relative="1" as="geometry">
            <mxPoint x="905" y="1688" as="sourcePoint" />
            <mxPoint x="855" y="1640" as="targetPoint" />
          </mxGeometry>
        </mxCell>
        <mxCell id="oaEBjMoHq7otdUCEXcrT-102" value="User&lt;div&gt;Sing-in&lt;/div&gt;" style="strokeWidth=2;html=1;shape=mxgraph.flowchart.start_1;whiteSpace=wrap;" vertex="1" parent="1">
          <mxGeometry x="930" y="1460" width="114.17" height="60" as="geometry" />
        </mxCell>
        <mxCell id="oaEBjMoHq7otdUCEXcrT-103" value="Remember Me" style="strokeWidth=2;html=1;shape=mxgraph.flowchart.start_1;whiteSpace=wrap;" vertex="1" parent="1">
          <mxGeometry x="930" y="1540" width="114.17" height="60" as="geometry" />
        </mxCell>
        <mxCell id="oaEBjMoHq7otdUCEXcrT-104" value="&lt;div&gt;&lt;br&gt;&lt;/div&gt;&lt;div&gt;&lt;br&gt;&lt;/div&gt;" style="endArrow=block;endSize=16;endFill=0;html=1;rounded=0;exitX=0;exitY=0.333;exitDx=0;exitDy=0;exitPerimeter=0;entryX=0.988;entryY=0.375;entryDx=0;entryDy=0;entryPerimeter=0;" edge="1" parent="1" source="oaEBjMoHq7otdUCEXcrT-103" target="oaEBjMoHq7otdUCEXcrT-89">
          <mxGeometry width="160" relative="1" as="geometry">
            <mxPoint x="950" y="1520" as="sourcePoint" />
            <mxPoint x="863" y="1586" as="targetPoint" />
          </mxGeometry>
        </mxCell>
        <mxCell id="oaEBjMoHq7otdUCEXcrT-105" value="Remember Me" style="strokeWidth=2;html=1;shape=mxgraph.flowchart.start_1;whiteSpace=wrap;" vertex="1" parent="1">
          <mxGeometry x="930" y="1620" width="114.17" height="60" as="geometry" />
        </mxCell>
        <mxCell id="oaEBjMoHq7otdUCEXcrT-106" value="&lt;div&gt;&lt;br&gt;&lt;/div&gt;&lt;div&gt;&lt;br&gt;&lt;/div&gt;" style="endArrow=block;endSize=16;endFill=0;html=1;rounded=0;exitX=0;exitY=0.5;exitDx=0;exitDy=0;exitPerimeter=0;entryX=0.794;entryY=0.88;entryDx=0;entryDy=0;entryPerimeter=0;" edge="1" parent="1" source="oaEBjMoHq7otdUCEXcrT-105" target="oaEBjMoHq7otdUCEXcrT-89">
          <mxGeometry width="160" relative="1" as="geometry">
            <mxPoint x="874.71" y="1664" as="sourcePoint" />
            <mxPoint x="817.71" y="1694" as="targetPoint" />
          </mxGeometry>
        </mxCell>
        <mxCell id="oaEBjMoHq7otdUCEXcrT-107" value="" style="endArrow=open;endSize=12;dashed=1;html=1;rounded=0;entryX=0.009;entryY=0.461;entryDx=0;entryDy=0;entryPerimeter=0;" edge="1" parent="1" target="oaEBjMoHq7otdUCEXcrT-108">
          <mxGeometry width="160" relative="1" as="geometry">
            <mxPoint x="874.71" y="1838" as="sourcePoint" />
            <mxPoint x="950" y="1840" as="targetPoint" />
          </mxGeometry>
        </mxCell>
        <mxCell id="oaEBjMoHq7otdUCEXcrT-108" value="Calculate&lt;div&gt;Total&lt;/div&gt;" style="strokeWidth=2;html=1;shape=mxgraph.flowchart.start_1;whiteSpace=wrap;" vertex="1" parent="1">
          <mxGeometry x="950" y="1810" width="114.17" height="60" as="geometry" />
        </mxCell>
        <mxCell id="oaEBjMoHq7otdUCEXcrT-109" value="&lt;font style=&quot;font-size: 10px;&quot;&gt;«include»&lt;/font&gt;" style="text;html=1;align=center;verticalAlign=middle;resizable=0;points=[];autosize=1;strokeColor=none;fillColor=none;" vertex="1" parent="1">
          <mxGeometry x="872" y="1800" width="70" height="30" as="geometry" />
        </mxCell>
        <mxCell id="oaEBjMoHq7otdUCEXcrT-110" value="Remember Me" style="strokeWidth=2;html=1;shape=mxgraph.flowchart.start_1;whiteSpace=wrap;" vertex="1" parent="1">
          <mxGeometry x="909.92" y="2138" width="114.17" height="60" as="geometry" />
        </mxCell>
        <mxCell id="oaEBjMoHq7otdUCEXcrT-111" value="Remember Me" style="strokeWidth=2;html=1;shape=mxgraph.flowchart.start_1;whiteSpace=wrap;" vertex="1" parent="1">
          <mxGeometry x="909.92" y="2278" width="114.17" height="60" as="geometry" />
        </mxCell>
        <mxCell id="oaEBjMoHq7otdUCEXcrT-112" value="&lt;div&gt;&lt;br&gt;&lt;/div&gt;&lt;div&gt;&lt;br&gt;&lt;/div&gt;" style="endArrow=block;endSize=16;endFill=0;html=1;rounded=0;exitX=0.018;exitY=0.713;exitDx=0;exitDy=0;exitPerimeter=0;entryX=0.92;entryY=0.25;entryDx=0;entryDy=0;entryPerimeter=0;" edge="1" parent="1" source="oaEBjMoHq7otdUCEXcrT-110" target="oaEBjMoHq7otdUCEXcrT-92">
          <mxGeometry width="160" relative="1" as="geometry">
            <mxPoint x="909.92" y="2138" as="sourcePoint" />
            <mxPoint x="852.92" y="2168" as="targetPoint" />
          </mxGeometry>
        </mxCell>
        <mxCell id="oaEBjMoHq7otdUCEXcrT-113" value="&lt;div&gt;&lt;br&gt;&lt;/div&gt;&lt;div&gt;&lt;br&gt;&lt;/div&gt;" style="endArrow=block;endSize=16;endFill=0;html=1;rounded=0;exitX=0.001;exitY=0.367;exitDx=0;exitDy=0;exitPerimeter=0;entryX=0.972;entryY=0.66;entryDx=0;entryDy=0;entryPerimeter=0;" edge="1" parent="1" source="oaEBjMoHq7otdUCEXcrT-111" target="oaEBjMoHq7otdUCEXcrT-92">
          <mxGeometry width="160" relative="1" as="geometry">
            <mxPoint x="932" y="2201" as="sourcePoint" />
            <mxPoint x="884" y="2238" as="targetPoint" />
          </mxGeometry>
        </mxCell>
        <mxCell id="oaEBjMoHq7otdUCEXcrT-114" value="" style="endArrow=none;html=1;rounded=0;" edge="1" parent="1">
          <mxGeometry width="50" height="50" relative="1" as="geometry">
            <mxPoint x="1024.0900000000001" y="2168" as="sourcePoint" />
            <mxPoint x="1190" y="2160" as="targetPoint" />
          </mxGeometry>
        </mxCell>
        <mxCell id="oaEBjMoHq7otdUCEXcrT-115" value="" style="endArrow=none;html=1;rounded=0;" edge="1" parent="1">
          <mxGeometry width="50" height="50" relative="1" as="geometry">
            <mxPoint x="1024.0900000000001" y="2312" as="sourcePoint" />
            <mxPoint x="1190" y="2304" as="targetPoint" />
          </mxGeometry>
        </mxCell>
        <mxCell id="oaEBjMoHq7otdUCEXcrT-116" value="&lt;span style=&quot;font-size: 10px;&quot;&gt;PayPal&lt;/span&gt;&lt;span style=&quot;color: rgba(0, 0, 0, 0); font-family: monospace; font-size: 0px; text-align: start;&quot;&gt;%3CmxGraphModel%3E%3Croot%3E%3CmxCell%20id%3D%220%22%2F%3E%3CmxCell%20id%3D%221%22%20parent%3D%220%22%2F%3E%3CmxCell%20id%3D%222%22%20value%3D%22%26lt%3Bspan%20style%3D%26quot%3Bfont-size%3A%2010px%3B%26quot%3B%26gt%3BPayPal%26lt%3B%2Fspan%26gt%3B%22%20style%3D%22shape%3DumlActor%3BverticalLabelPosition%3Dbottom%3BverticalAlign%3Dtop%3Bhtml%3D1%3BoutlineConnect%3D0%3B%22%20vertex%3D%221%22%20parent%3D%221%22%3E%3CmxGeometry%20x%3D%22712%22%20y%3D%22450%22%20width%3D%2250%22%20height%3D%2280%22%20as%3D%22geometry%22%2F%3E%3C%2FmxCell%3E%3C%2Froot%3E%3C%2FmxGraphModel%3E&lt;/span&gt;" style="shape=umlActor;verticalLabelPosition=bottom;verticalAlign=top;html=1;outlineConnect=0;" vertex="1" parent="1">
          <mxGeometry x="1190" y="2258" width="50" height="80" as="geometry" />
        </mxCell>
        <mxCell id="oaEBjMoHq7otdUCEXcrT-118" value="&lt;span style=&quot;font-size: 10px;&quot;&gt;Credit&lt;/span&gt;&lt;div&gt;&lt;span style=&quot;font-size: 10px;&quot;&gt;Payment Service&lt;/span&gt;&lt;/div&gt;" style="shape=umlActor;verticalLabelPosition=bottom;verticalAlign=top;html=1;outlineConnect=0;" vertex="1" parent="1">
          <mxGeometry x="1190" y="2118" width="50" height="80" as="geometry" />
        </mxCell>
        <mxCell id="oaEBjMoHq7otdUCEXcrT-120" value="" style="endArrow=none;html=1;rounded=0;" edge="1" parent="1">
          <mxGeometry width="50" height="50" relative="1" as="geometry">
            <mxPoint x="1044.17" y="1494" as="sourcePoint" />
            <mxPoint x="1210" y="1480" as="targetPoint" />
          </mxGeometry>
        </mxCell>
        <mxCell id="oaEBjMoHq7otdUCEXcrT-122" value="" style="endArrow=none;html=1;rounded=0;" edge="1" parent="1">
          <mxGeometry width="50" height="50" relative="1" as="geometry">
            <mxPoint x="1044.17" y="1574" as="sourcePoint" />
            <mxPoint x="1210" y="1480" as="targetPoint" />
          </mxGeometry>
        </mxCell>
        <mxCell id="oaEBjMoHq7otdUCEXcrT-123" value="" style="endArrow=none;html=1;rounded=0;exitX=1.004;exitY=0.452;exitDx=0;exitDy=0;exitPerimeter=0;" edge="1" parent="1" source="oaEBjMoHq7otdUCEXcrT-105">
          <mxGeometry width="50" height="50" relative="1" as="geometry">
            <mxPoint x="1064.17" y="1594" as="sourcePoint" />
            <mxPoint x="1210" y="1480" as="targetPoint" />
          </mxGeometry>
        </mxCell>
        <mxCell id="oaEBjMoHq7otdUCEXcrT-124" value="&lt;span style=&quot;font-size: 10px;&quot;&gt;«Servise»&lt;/span&gt;&lt;div&gt;&lt;span style=&quot;font-size: 10px;&quot;&gt;Authentication&lt;/span&gt;&lt;/div&gt;" style="shape=umlActor;verticalLabelPosition=bottom;verticalAlign=top;html=1;outlineConnect=0;" vertex="1" parent="1">
          <mxGeometry x="1190" y="1440" width="50" height="80" as="geometry" />
        </mxCell>
        <mxCell id="oaEBjMoHq7otdUCEXcrT-125" value="" style="endArrow=none;html=1;rounded=0;exitX=0.977;exitY=0.627;exitDx=0;exitDy=0;exitPerimeter=0;" edge="1" parent="1" source="oaEBjMoHq7otdUCEXcrT-105">
          <mxGeometry width="50" height="50" relative="1" as="geometry">
            <mxPoint x="1065" y="1667" as="sourcePoint" />
            <mxPoint x="1190" y="1660" as="targetPoint" />
          </mxGeometry>
        </mxCell>
        <mxCell id="oaEBjMoHq7otdUCEXcrT-126" value="&lt;span style=&quot;font-size: 10px;&quot;&gt;identity&lt;/span&gt;&lt;div&gt;&lt;span style=&quot;font-size: 10px;&quot;&gt;Provider&lt;/span&gt;&lt;/div&gt;" style="shape=umlActor;verticalLabelPosition=bottom;verticalAlign=top;html=1;outlineConnect=0;" vertex="1" parent="1">
          <mxGeometry x="1190" y="1610" width="50" height="80" as="geometry" />
        </mxCell>
        <mxCell id="oaEBjMoHq7otdUCEXcrT-127" value="User" style="shape=umlActor;verticalLabelPosition=bottom;verticalAlign=top;html=1;outlineConnect=0;" vertex="1" parent="1">
          <mxGeometry x="260" y="2580" width="30" height="60" as="geometry" />
        </mxCell>
        <mxCell id="oaEBjMoHq7otdUCEXcrT-128" value="Admin" style="shape=umlActor;verticalLabelPosition=bottom;verticalAlign=top;html=1;outlineConnect=0;" vertex="1" parent="1">
          <mxGeometry x="280" y="2760" width="30" height="60" as="geometry" />
        </mxCell>
        <mxCell id="oaEBjMoHq7otdUCEXcrT-131" value="User&lt;div&gt;Sing-in&lt;/div&gt;" style="strokeWidth=2;html=1;shape=mxgraph.flowchart.start_1;whiteSpace=wrap;" vertex="1" parent="1">
          <mxGeometry x="550.83" y="2620" width="114.17" height="60" as="geometry" />
        </mxCell>
        <mxCell id="oaEBjMoHq7otdUCEXcrT-132" value="Remember" style="strokeWidth=2;html=1;shape=mxgraph.flowchart.start_1;whiteSpace=wrap;" vertex="1" parent="1">
          <mxGeometry x="550.83" y="2720" width="114.17" height="60" as="geometry" />
        </mxCell>
        <mxCell id="oaEBjMoHq7otdUCEXcrT-133" value="" style="endArrow=none;html=1;rounded=0;entryX=1;entryY=0.589;entryDx=0;entryDy=0;entryPerimeter=0;" edge="1" parent="1" target="oaEBjMoHq7otdUCEXcrT-131">
          <mxGeometry width="50" height="50" relative="1" as="geometry">
            <mxPoint x="700" y="2700" as="sourcePoint" />
            <mxPoint x="810" y="2680" as="targetPoint" />
          </mxGeometry>
        </mxCell>
        <mxCell id="oaEBjMoHq7otdUCEXcrT-134" value="" style="endArrow=none;html=1;rounded=0;entryX=1.009;entryY=0.422;entryDx=0;entryDy=0;entryPerimeter=0;" edge="1" parent="1" target="oaEBjMoHq7otdUCEXcrT-132">
          <mxGeometry width="50" height="50" relative="1" as="geometry">
            <mxPoint x="700" y="2700" as="sourcePoint" />
            <mxPoint x="685" y="2675" as="targetPoint" />
          </mxGeometry>
        </mxCell>
        <mxCell id="oaEBjMoHq7otdUCEXcrT-135" value="Customer&lt;br&gt;&lt;div&gt;Authentication&lt;/div&gt;" style="strokeWidth=2;html=1;shape=mxgraph.flowchart.start_1;whiteSpace=wrap;" vertex="1" parent="1">
          <mxGeometry x="320.99999999999994" y="2660" width="139.17" height="80" as="geometry" />
        </mxCell>
        <mxCell id="oaEBjMoHq7otdUCEXcrT-136" value="&lt;div&gt;&lt;br&gt;&lt;/div&gt;&lt;div&gt;&lt;br&gt;&lt;/div&gt;" style="endArrow=block;endSize=16;endFill=0;html=1;rounded=0;exitX=0.001;exitY=0.631;exitDx=0;exitDy=0;exitPerimeter=0;entryX=0.959;entryY=0.232;entryDx=0;entryDy=0;entryPerimeter=0;" edge="1" parent="1" source="oaEBjMoHq7otdUCEXcrT-131" target="oaEBjMoHq7otdUCEXcrT-135">
          <mxGeometry width="160" relative="1" as="geometry">
            <mxPoint x="550.83" y="2594" as="sourcePoint" />
            <mxPoint x="463.83000000000004" y="2660" as="targetPoint" />
          </mxGeometry>
        </mxCell>
        <mxCell id="oaEBjMoHq7otdUCEXcrT-137" value="&lt;div&gt;&lt;br&gt;&lt;/div&gt;&lt;div&gt;&lt;br&gt;&lt;/div&gt;" style="endArrow=block;endSize=16;endFill=0;html=1;rounded=0;entryX=0.855;entryY=0.855;entryDx=0;entryDy=0;entryPerimeter=0;" edge="1" parent="1" source="oaEBjMoHq7otdUCEXcrT-132" target="oaEBjMoHq7otdUCEXcrT-135">
          <mxGeometry width="160" relative="1" as="geometry">
            <mxPoint x="533" y="2740" as="sourcePoint" />
            <mxPoint x="436" y="2761" as="targetPoint" />
          </mxGeometry>
        </mxCell>
        <mxCell id="oaEBjMoHq7otdUCEXcrT-138" value="" style="endArrow=none;html=1;rounded=0;exitX=0.424;exitY=0;exitDx=0;exitDy=0;exitPerimeter=0;" edge="1" parent="1" source="oaEBjMoHq7otdUCEXcrT-135" target="oaEBjMoHq7otdUCEXcrT-127">
          <mxGeometry width="50" height="50" relative="1" as="geometry">
            <mxPoint x="436.45" y="2660" as="sourcePoint" />
            <mxPoint x="401.45" y="2615" as="targetPoint" />
          </mxGeometry>
        </mxCell>
        <mxCell id="oaEBjMoHq7otdUCEXcrT-139" value="" style="endArrow=none;html=1;rounded=0;entryX=0.568;entryY=1;entryDx=0;entryDy=0;entryPerimeter=0;" edge="1" parent="1" target="oaEBjMoHq7otdUCEXcrT-135">
          <mxGeometry width="50" height="50" relative="1" as="geometry">
            <mxPoint x="320" y="2800" as="sourcePoint" />
            <mxPoint x="705" y="2695" as="targetPoint" />
          </mxGeometry>
        </mxCell>
        <mxCell id="oaEBjMoHq7otdUCEXcrT-140" value="User" style="shape=umlActor;verticalLabelPosition=bottom;verticalAlign=top;html=1;outlineConnect=0;" vertex="1" parent="1">
          <mxGeometry x="712" y="2660" width="30" height="60" as="geometry" />
        </mxCell>
        <mxCell id="oaEBjMoHq7otdUCEXcrT-141" value="" style="endArrow=none;html=1;rounded=0;exitX=0.424;exitY=0;exitDx=0;exitDy=0;exitPerimeter=0;" edge="1" parent="1">
          <mxGeometry width="50" height="50" relative="1" as="geometry">
            <mxPoint x="260" y="2620" as="sourcePoint" />
            <mxPoint x="170" y="2577" as="targetPoint" />
          </mxGeometry>
        </mxCell>
        <mxCell id="oaEBjMoHq7otdUCEXcrT-142" value="" style="endArrow=none;html=1;rounded=0;exitX=0.424;exitY=0;exitDx=0;exitDy=0;exitPerimeter=0;" edge="1" parent="1">
          <mxGeometry width="50" height="50" relative="1" as="geometry">
            <mxPoint x="275" y="2803" as="sourcePoint" />
            <mxPoint x="180" y="2860" as="targetPoint" />
          </mxGeometry>
        </mxCell>
        <mxCell id="oaEBjMoHq7otdUCEXcrT-143" value="Actions" style="strokeWidth=2;html=1;shape=mxgraph.flowchart.start_1;whiteSpace=wrap;" vertex="1" parent="1">
          <mxGeometry x="85.83000000000004" y="2520" width="114.17" height="60" as="geometry" />
        </mxCell>
        <mxCell id="oaEBjMoHq7otdUCEXcrT-144" value="" style="endArrow=open;endSize=12;dashed=1;html=1;rounded=0;exitX=0.794;exitY=0.09;exitDx=0;exitDy=0;exitPerimeter=0;" edge="1" parent="1" source="oaEBjMoHq7otdUCEXcrT-143">
          <mxGeometry width="160" relative="1" as="geometry">
            <mxPoint x="119" y="2380" as="sourcePoint" />
            <mxPoint x="220" y="2500" as="targetPoint" />
          </mxGeometry>
        </mxCell>
        <mxCell id="oaEBjMoHq7otdUCEXcrT-145" value="Take the test" style="strokeWidth=2;html=1;shape=mxgraph.flowchart.start_1;whiteSpace=wrap;" vertex="1" parent="1">
          <mxGeometry x="217.92000000000002" y="2460" width="114.17" height="60" as="geometry" />
        </mxCell>
        <mxCell id="oaEBjMoHq7otdUCEXcrT-146" value="" style="endArrow=open;endSize=12;dashed=1;html=1;rounded=0;exitX=0.794;exitY=0.09;exitDx=0;exitDy=0;exitPerimeter=0;" edge="1" parent="1">
          <mxGeometry width="160" relative="1" as="geometry">
            <mxPoint x="140" y="2520" as="sourcePoint" />
            <mxPoint x="140" y="2460" as="targetPoint" />
          </mxGeometry>
        </mxCell>
        <mxCell id="oaEBjMoHq7otdUCEXcrT-147" value="View result" style="strokeWidth=2;html=1;shape=mxgraph.flowchart.start_1;whiteSpace=wrap;" vertex="1" parent="1">
          <mxGeometry x="85.83000000000001" y="2398" width="114.17" height="60" as="geometry" />
        </mxCell>
        <mxCell id="oaEBjMoHq7otdUCEXcrT-148" value="&lt;font style=&quot;font-size: 10px;&quot;&gt;«extend»&lt;/font&gt;" style="text;html=1;align=center;verticalAlign=middle;resizable=0;points=[];autosize=1;strokeColor=none;fillColor=none;" vertex="1" parent="1">
          <mxGeometry x="70" y="2470" width="80" height="40" as="geometry" />
        </mxCell>
        <mxCell id="oaEBjMoHq7otdUCEXcrT-149" value="" style="endArrow=open;endSize=12;dashed=1;html=1;rounded=0;exitX=0.649;exitY=-0.013;exitDx=0;exitDy=0;exitPerimeter=0;" edge="1" parent="1" source="oaEBjMoHq7otdUCEXcrT-143">
          <mxGeometry width="160" relative="1" as="geometry">
            <mxPoint x="170" y="2495" as="sourcePoint" />
            <mxPoint x="240" y="2420" as="targetPoint" />
          </mxGeometry>
        </mxCell>
        <mxCell id="oaEBjMoHq7otdUCEXcrT-150" value="Change data" style="strokeWidth=2;html=1;shape=mxgraph.flowchart.start_1;whiteSpace=wrap;" vertex="1" parent="1">
          <mxGeometry x="217.92000000000002" y="2360" width="114.17" height="60" as="geometry" />
        </mxCell>
        <mxCell id="oaEBjMoHq7otdUCEXcrT-151" value="&lt;font style=&quot;font-size: 10px;&quot;&gt;«extend»&lt;/font&gt;" style="text;html=1;align=center;verticalAlign=middle;resizable=0;points=[];autosize=1;strokeColor=none;fillColor=none;rotation=-45;" vertex="1" parent="1">
          <mxGeometry x="190" y="2430" width="80" height="40" as="geometry" />
        </mxCell>
        <mxCell id="oaEBjMoHq7otdUCEXcrT-152" value="&lt;div&gt;&lt;br&gt;&lt;/div&gt;&lt;div&gt;&lt;br&gt;&lt;/div&gt;" style="endArrow=block;endSize=16;endFill=0;html=1;rounded=0;exitX=0.369;exitY=0;exitDx=0;exitDy=0;exitPerimeter=0;" edge="1" parent="1" source="oaEBjMoHq7otdUCEXcrT-150">
          <mxGeometry width="160" relative="1" as="geometry">
            <mxPoint x="240" y="2323" as="sourcePoint" />
            <mxPoint x="220" y="2320" as="targetPoint" />
          </mxGeometry>
        </mxCell>
        <mxCell id="oaEBjMoHq7otdUCEXcrT-153" value="&lt;div&gt;&lt;br&gt;&lt;/div&gt;&lt;div&gt;&lt;br&gt;&lt;/div&gt;" style="endArrow=block;endSize=16;endFill=0;html=1;rounded=0;" edge="1" parent="1" source="oaEBjMoHq7otdUCEXcrT-150">
          <mxGeometry width="160" relative="1" as="geometry">
            <mxPoint x="332.09000000000003" y="2358" as="sourcePoint" />
            <mxPoint x="340" y="2320" as="targetPoint" />
          </mxGeometry>
        </mxCell>
        <mxCell id="oaEBjMoHq7otdUCEXcrT-154" value="Change pass" style="strokeWidth=2;html=1;shape=mxgraph.flowchart.start_1;whiteSpace=wrap;" vertex="1" parent="1">
          <mxGeometry x="165.83" y="2258" width="114.17" height="60" as="geometry" />
        </mxCell>
        <mxCell id="oaEBjMoHq7otdUCEXcrT-155" value="Change login" style="strokeWidth=2;html=1;shape=mxgraph.flowchart.start_1;whiteSpace=wrap;" vertex="1" parent="1">
          <mxGeometry x="311.83000000000004" y="2258" width="114.17" height="60" as="geometry" />
        </mxCell>
        <mxCell id="oaEBjMoHq7otdUCEXcrT-156" value="Actions" style="strokeWidth=2;html=1;shape=mxgraph.flowchart.start_1;whiteSpace=wrap;" vertex="1" parent="1">
          <mxGeometry x="117.92000000000004" y="2863" width="114.17" height="60" as="geometry" />
        </mxCell>
        <mxCell id="oaEBjMoHq7otdUCEXcrT-157" value="&lt;div&gt;&lt;br&gt;&lt;/div&gt;&lt;div&gt;&lt;br&gt;&lt;/div&gt;" style="endArrow=block;endSize=16;endFill=0;html=1;rounded=0;" edge="1" parent="1" source="oaEBjMoHq7otdUCEXcrT-140" target="oaEBjMoHq7otdUCEXcrT-127">
          <mxGeometry width="160" relative="1" as="geometry">
            <mxPoint x="571" y="2678" as="sourcePoint" />
            <mxPoint x="474" y="2699" as="targetPoint" />
          </mxGeometry>
        </mxCell>
        <mxCell id="oaEBjMoHq7otdUCEXcrT-158" value="&lt;div&gt;&lt;br&gt;&lt;/div&gt;&lt;div&gt;&lt;br&gt;&lt;/div&gt;" style="endArrow=block;endSize=16;endFill=0;html=1;rounded=0;" edge="1" parent="1" source="oaEBjMoHq7otdUCEXcrT-140">
          <mxGeometry width="160" relative="1" as="geometry">
            <mxPoint x="732" y="2707" as="sourcePoint" />
            <mxPoint x="340" y="2820" as="targetPoint" />
          </mxGeometry>
        </mxCell>
      </root>
    </mxGraphModel>
  </diagram>
</mxfile>
